<svg width="231" height="52" viewBox="0 0 231 52" fill="none" xmlns="http://www.w3.org/2000/svg">
<path d="M1.84275 14.7333L8.35774 8.21828C9.91245 6.66357 12.3556 6.66357 13.8363 8.21828L32.4188 26.8008C33.9735 28.3555 33.9735 30.7986 32.4188 32.3534L13.6882 50.8619C12.1335 52.4166 9.69035 52.3425 8.13564 50.8619L1.76871 44.3469C0.288033 42.7922 0.288033 40.349 1.76871 38.8684C6.87706 33.76 6.87706 25.3942 1.76871 20.2858C0.288033 18.7311 0.288038 16.288 1.84275 14.7333Z" fill="#99C9E2"/>
<path d="M36.2683 43.458L32.2705 39.4601C31.0859 38.2756 31.0859 36.2767 32.2705 35.0921L33.7512 33.6114C35.8981 31.4644 35.8981 28.0589 33.7512 25.9119L26.4958 18.6566C25.3113 17.472 25.3113 15.4731 26.4958 14.2886L39.896 0.888408C41.0805 -0.296136 43.0795 -0.296136 44.264 0.888408L48.2618 4.88624C49.4464 6.07079 49.4464 8.06971 48.2618 9.25425C44.264 13.2521 44.264 19.693 48.2618 23.6909L52.1116 27.5406C53.2961 28.7252 53.2961 30.7241 52.1116 31.9087L40.5623 43.458C39.4518 44.6425 37.4529 44.6425 36.2683 43.458Z" fill="white"/>
<path d="M14.8721 34.1295C14.3539 33.6113 14.3539 32.7228 14.8721 32.2046L16.5749 30.5018C17.0931 29.9836 17.0931 29.0952 16.5749 28.5769L14.502 26.504C13.9837 25.9858 13.9837 25.0973 14.502 24.5791C15.0202 24.0609 15.9086 24.0609 16.4268 24.5791L20.3506 28.5029C20.8689 29.0211 20.8689 29.9096 20.3506 30.4278L16.797 33.9814C16.2788 34.6477 15.3904 34.6477 14.8721 34.1295Z" fill="white"/>
<path d="M68.5361 11.4716H80.6312C82.6601 11.4716 84.4939 11.8228 86.1326 12.5251C87.7973 13.2274 89.2149 14.2158 90.3854 15.4903C91.5559 16.7649 92.4533 18.3125 93.0775 20.1333C93.7018 21.9541 94.0139 23.97 94.0139 26.1809C94.0139 28.3398 93.7148 30.3037 93.1166 32.0724C92.5183 33.8152 91.6339 35.3108 90.4634 36.5593C89.2929 37.8079 87.8493 38.7833 86.1326 39.4856C84.4159 40.1619 82.452 40.5 80.2411 40.5H68.5361V11.4716ZM79.7339 34.8816C82.2569 34.8816 84.1297 34.1273 85.3523 32.6186C86.6008 31.11 87.225 28.9641 87.225 26.1809C87.225 23.4237 86.6008 21.2258 85.3523 19.5871C84.1297 17.9224 82.2959 17.09 79.8509 17.09H75.2079V34.8816H79.7339ZM107.203 41.1243C105.513 41.1243 103.991 40.8511 102.638 40.3049C101.286 39.7327 100.128 38.9523 99.166 37.9639C98.2296 36.9755 97.5013 35.818 96.981 34.4914C96.4868 33.1649 96.2397 31.7213 96.2397 30.1606C96.2397 28.5999 96.4998 27.1563 97.0201 25.8297C97.5403 24.4772 98.2686 23.3067 99.205 22.3182C100.141 21.3298 101.26 20.5625 102.56 20.0163C103.861 19.444 105.305 19.1579 106.891 19.1579C108.374 19.1579 109.7 19.392 110.871 19.8602C112.067 20.3284 113.121 20.9787 114.031 21.811C115.202 22.9555 116.06 24.3731 116.606 26.0638C117.153 27.7546 117.413 29.6274 117.387 31.6822H102.248C102.456 33.2429 102.977 34.4654 103.809 35.3498C104.641 36.2342 105.799 36.6764 107.281 36.6764C108.244 36.6764 109.024 36.5073 109.622 36.1692C110.247 35.805 110.728 35.2978 111.066 34.6475H116.997C116.736 35.5579 116.32 36.4163 115.748 37.2226C115.202 38.0029 114.513 38.6922 113.68 39.2905C112.874 39.8627 111.924 40.3049 110.832 40.617C109.739 40.9552 108.53 41.1243 107.203 41.1243ZM106.891 23.4887C105.487 23.4887 104.42 23.9049 103.692 24.7373C102.964 25.5696 102.495 26.7011 102.287 28.1317H111.144C111.04 26.6751 110.611 25.5436 109.857 24.7373C109.102 23.9049 108.114 23.4887 106.891 23.4887ZM118.052 19.7432H124.373L126.909 28.0927C127.117 28.795 127.312 29.5623 127.494 30.3947C127.702 31.227 127.884 32.0204 128.04 32.7747C128.222 33.6331 128.392 34.4914 128.548 35.3498H128.665C128.821 34.4914 128.99 33.6331 129.172 32.7747C129.328 32.0204 129.497 31.227 129.679 30.3947C129.887 29.5623 130.095 28.795 130.303 28.0927L132.917 19.7432H139.082L131.825 40.5H125.231L118.052 19.7432ZM153.121 41.2023C151.171 41.2023 149.415 40.9812 147.854 40.539C146.293 40.0968 144.954 39.4596 143.835 38.6272C142.717 37.7948 141.846 36.7674 141.221 35.5449C140.623 34.2964 140.298 32.8918 140.246 31.3311H146.957C147.139 32.9178 147.737 34.0753 148.752 34.8036C149.792 35.5319 151.249 35.896 153.121 35.896C153.772 35.896 154.396 35.831 154.994 35.701C155.592 35.5709 156.126 35.3758 156.594 35.1157C157.062 34.8296 157.426 34.4784 157.686 34.0623C157.972 33.6201 158.116 33.0998 158.116 32.5016C158.116 31.8773 157.959 31.3571 157.647 30.9409C157.361 30.5247 156.932 30.1736 156.36 29.8875C155.788 29.6014 155.085 29.3542 154.253 29.1462C153.421 28.9121 152.484 28.678 151.444 28.4439C150.039 28.1317 148.713 27.7806 147.464 27.3904C146.215 27.0002 145.123 26.493 144.187 25.8688C143.25 25.2185 142.509 24.4121 141.963 23.4497C141.442 22.4613 141.182 21.2128 141.182 19.7041C141.182 18.1955 141.468 16.8949 142.041 15.8025C142.613 14.71 143.406 13.8126 144.421 13.1103C145.435 12.382 146.632 11.8488 148.01 11.5106C149.389 11.1465 150.884 10.9644 152.497 10.9644C154.084 10.9644 155.553 11.1465 156.906 11.5106C158.259 11.8748 159.429 12.421 160.418 13.1493C161.406 13.8776 162.199 14.788 162.798 15.8805C163.396 16.947 163.747 18.1955 163.851 19.6261H157.335C157.153 18.4816 156.633 17.5972 155.775 16.973C154.916 16.3487 153.759 16.0366 152.302 16.0366C150.923 16.0366 149.818 16.3097 148.986 16.8559C148.153 17.4022 147.737 18.1305 147.737 19.0409C147.737 19.6131 147.893 20.0813 148.205 20.4455C148.517 20.8096 148.973 21.1347 149.571 21.4209C150.169 21.681 150.897 21.9151 151.756 22.1232C152.64 22.3313 153.655 22.5654 154.799 22.8255C156.1 23.1116 157.348 23.4627 158.545 23.8789C159.767 24.2691 160.834 24.8023 161.744 25.4786C162.68 26.1549 163.422 27.0002 163.968 28.0147C164.54 29.0291 164.826 30.3037 164.826 31.8383C164.826 33.347 164.527 34.6865 163.929 35.857C163.331 37.0015 162.498 37.9769 161.432 38.7833C160.391 39.5636 159.156 40.1619 157.725 40.578C156.321 40.9942 154.786 41.2023 153.121 41.2023ZM174.363 19.47C174.363 19.5221 174.363 19.6521 174.363 19.8602C174.363 20.0683 174.363 20.3284 174.363 20.6405C174.363 20.9527 174.35 21.2908 174.324 21.655C174.324 22.0191 174.324 22.3703 174.324 22.7084H174.441C175.066 21.5899 175.898 20.7186 176.938 20.0943C177.979 19.47 179.227 19.1579 180.684 19.1579C182.973 19.1579 184.742 19.8602 185.99 21.2648C187.265 22.6434 187.902 24.5032 187.902 26.8442V40.5H181.815V28.0147C181.815 26.8702 181.516 25.9598 180.918 25.2835C180.346 24.5812 179.487 24.2301 178.343 24.2301C177.146 24.2301 176.184 24.6592 175.456 25.5176C174.727 26.376 174.363 27.4684 174.363 28.795V40.5H168.238V11.4716H174.363V19.47ZM191.746 11.4716H197.949V16.8169H191.746V11.4716ZM191.785 19.7432H197.91V40.5H191.785V19.7432ZM200.71 19.7432H203.831V17.9874C203.831 15.8025 204.416 14.1768 205.587 13.1103C206.263 12.5121 207.121 12.0829 208.162 11.8228C209.228 11.5627 210.425 11.4456 211.751 11.4716C212.167 11.4716 212.584 11.4846 213 11.5106C213.416 11.5367 213.845 11.5757 214.287 11.6277V15.9976C213.507 15.9715 212.844 15.9715 212.297 15.9976C211.751 16.0236 211.296 16.1276 210.932 16.3097C210.594 16.4658 210.347 16.7129 210.191 17.051C210.034 17.3891 209.956 17.8443 209.956 18.4166V19.7432H214.287V23.7228H209.956V40.5H203.831V23.7228H200.71V19.7432ZM216.142 19.7432H219.263V13.1103H225.272V19.7432H229.329V23.6448H225.272V33.9452C225.272 34.7255 225.467 35.2588 225.857 35.5449C226.273 35.805 226.845 35.9351 227.574 35.9351C227.782 35.9351 228.016 35.9351 228.276 35.9351C228.536 35.909 228.77 35.883 228.978 35.857H229.29V40.422C228.952 40.474 228.484 40.539 227.886 40.617C227.288 40.6951 226.572 40.7341 225.74 40.7341C224.777 40.7341 223.893 40.6561 223.087 40.5C222.306 40.3179 221.63 40.0188 221.058 39.6026C220.486 39.1604 220.043 38.6012 219.731 37.9249C219.419 37.2226 219.263 36.3382 219.263 35.2718V23.6448H216.142V19.7432Z" fill="white"/>
</svg>
